<svg width="180" height="37" viewBox="0 0 180 37" fill="none" xmlns="http://www.w3.org/2000/svg">
<path d="M179.5 18.5C179.5 28.165 171.765 36 162.1 36C152.435 36 144.7 28.165 144.7 18.5C144.7 8.83502 152.435 1 162.1 1C171.765 1 179.5 8.83502 179.5 18.5Z" fill="black" stroke="black" stroke-width="2"/>
<path d="M138.5 18.5C138.5 28.165 130.765 36 121.1 36C111.435 36 103.7 28.165 103.7 18.5C103.7 8.83502 111.435 1 121.1 1C130.765 1 138.5 8.83502 138.5 18.5Z" fill="black" stroke="black" stroke-width="2"/>
<path d="M97.5 18.5C97.5 28.165 89.765 36 80.1 36C70.435 36 62.7 28.165 62.7 18.5C62.7 8.83502 70.435 1 80.1 1C89.765 1 97.5 8.83502 97.5 18.5Z" fill="black" stroke="black" stroke-width="2"/>
<path d="M56.5 18.5C56.5 28.165 48.765 36 39.1 36C29.435 36 21.7 28.165 21.7 18.5C21.7 8.83502 29.435 1 39.1 1C48.765 1 56.5 8.83502 56.5 18.5Z" fill="black" stroke="black" stroke-width="2"/>
<path d="M15.5 18.5C15.5 28.165 7.76502 36 0.100006 36C-7.565 36 -15.3 28.165 -15.3 18.5C-15.3 8.83502 -7.565 1 0.100006 1C7.76502 1 15.5 8.83502 15.5 18.5Z" fill="black" stroke="black" stroke-width="2"/>
</svg>